<?xml version="1.0" encoding="UTF-8" standalone="no"?>
<!DOCTYPE svg PUBLIC "-//W3C//DTD SVG 1.1//EN" "http://www.w3.org/Graphics/SVG/1.1/DTD/svg11.dtd">
<!-- Created with Vectornator (http://vectornator.io/) -->
<svg height="100%" stroke-miterlimit="10" style="fill-rule:nonzero;clip-rule:evenodd;stroke-linecap:round;stroke-linejoin:round;" version="1.1" viewBox="0 0 400 400" width="100%" xml:space="preserve" xmlns="http://www.w3.org/2000/svg" xmlns:xlink="http://www.w3.org/1999/xlink">
<defs/>
<g id="surface1">
<g opacity="1">
<path d="M200.002 35.5063C290.847 35.5063 364.494 109.153 364.494 200.002C364.494 290.847 290.847 364.494 200.002 364.494C109.153 364.494 35.5063 290.847 35.5063 200.002C35.5063 109.153 109.153 35.5063 200.002 35.5063ZM200.002 17.2352C300.939 17.2352 382.769 99.0614 382.769 200.002C382.769 300.939 300.939 382.765 200.002 382.765C99.0614 382.765 17.2352 300.939 17.2352 200.002C17.2352 99.0614 99.0614 17.2352 200.002 17.2352" fill="#231f20" fill-rule="evenodd" opacity="1" stroke="none"/>
<path d="M252.575 106.744C252.839 107.142 252.67 107.924 252.562 108.937L250.563 122.052C250.01 125.136 249.227 128.233 248.37 131.226L248.258 131.706C247.466 135.11 246.64 136.296 246.445 139.972C246.407 140.656 246.51 140.353 246.29 140.712C246.221 143.225 247.864 144.955 249.521 145.829C251.653 146.954 253.18 147.59 252.051 150.903C250.641 155.047 249.322 159.061 247.942 163.218C246.017 169.036 243.867 168.123 236.332 168.106C235.286 168.101 233.698 168.331 232.63 168.482C231.41 168.655 230.324 168.841 229.195 169.196C226.916 169.922 224.58 170.701 224.679 172.829C225.955 173.885 227.071 172.613 229.178 174.218C229.07 174.871 226.587 182.453 226.47 182.648C226.25 183.011 221.937 185.39 221.262 185.728C220.648 186.035 220.012 186.511 219.42 186.662C219.359 184.677 219.895 180.304 219.783 178.911L217.992 178.928C217.871 180.295 217.832 181.947 217.633 183.176C217.399 184.629 217.616 186.057 217.33 187.497C217.049 187.744 211.759 190.101 211.149 190.157L211.106 181.286L208.991 181.312C208.796 182.769 209.12 190.577 208.826 190.975C208.277 191.485 205.855 192.017 205.011 192.255C203.783 192.597 202.334 193.168 201.187 193.393C201.019 192.346 201.127 187.315 201.127 185.589L201.118 183.6C200.941 182.544 199.172 183.133 199.167 183.133L198.916 183.284L198.908 193.354C198.285 193.354 191.567 191.304 191.139 190.97C190.992 189.526 191.1 187.558 191.1 186.052C191.1 180.585 191.628 181.156 188.894 181.255L188.881 190.097C188.103 190.036 183.167 187.865 182.064 187.406L182.038 178.958L180.265 178.993C180.208 180.446 180.442 181.454 180.442 182.665C180.446 183.972 180.442 185.278 180.438 186.58L176.761 184.608C176.229 184.296 175.628 184.002 174.983 183.617C173.595 182.787 173.811 183.202 173.521 182.453L172.219 178.392C171.929 177.483 171.056 175.065 170.991 174.218C172.712 172.379 175.13 174.321 175.386 172.522C175.576 171.19 174.408 170.666 173.365 170.156C169.542 168.287 165.112 168.114 160.718 168.114C157.495 168.114 154.567 168.283 153.174 165.783C152.287 164.2 148.948 153.576 148.083 151.02C146.642 146.75 149.091 147.032 151.357 145.34C155.047 142.589 153.944 138.333 152.841 134.328C150.704 126.58 149.752 122.566 148.407 114.002L147.261 102.894C147.222 102.124 147.257 101.228 147.257 100.441C147.252 98.8019 147.071 97.4307 147.079 95.6702C147.088 94.7532 147.252 94.1606 147.252 93.2176C147.252 91.0375 147.654 88.8488 148.225 86.8764C149.337 83.0439 151.599 78.6405 154.113 75.5391L156.34 72.8573C156.812 72.2128 156.989 72.0744 157.499 71.5596C158.287 70.7724 159.939 69.1849 160.813 68.5793C161.215 68.2982 161.163 68.3414 161.492 68.0213C163.594 65.984 169.464 62.5452 171.986 61.3124C174.343 60.1532 176.441 59.327 178.937 58.4316C180.221 57.9688 181.368 57.6184 182.626 57.2032C186.515 55.9055 188.142 56.3035 191.208 55.8233C191.892 55.7195 192.891 55.806 193.618 55.7844C194.47 55.7541 194.898 55.5811 195.91 55.5897C198.428 55.607 203.502 55.3043 205.669 55.6763L210.197 55.9963C213.264 55.992 215.661 56.6279 218.546 57.5189C219.861 57.9212 220.838 58.3581 222.171 58.7993C226.479 60.2181 234.503 64.4744 238.132 67.5974C242.873 71.6764 246.545 75.2666 249.465 81.0196C252.813 87.603 253.232 92.4217 252.977 99.68C252.947 100.51 252.774 100.939 252.774 101.977C252.782 103.781 252.562 104.979 252.575 106.744ZM160.778 144.553C160.778 146.006 161.159 145.725 161.95 146.396C163.205 147.456 166.202 149.272 167.578 149.826C171.423 151.361 172.799 152.183 177.28 150.661C181.632 149.181 187.597 146.119 191.066 143.087C193.622 140.85 190.032 139.263 188.496 138.285C182.302 134.362 174.494 128.54 166.726 130.763C164.178 131.49 160.778 133.977 160.778 136.867L160.778 144.553ZM238.85 136.867C238.85 134.41 236.138 132.139 234.568 131.408C228.339 128.523 221.639 131.745 216.34 134.998C215.31 135.63 214.398 136.265 213.416 136.845L208.917 139.717C206.616 141.231 207.953 142.71 209.614 143.913C213.308 146.599 221.617 151.461 226.038 151.457C229.831 151.452 235.147 148.537 238.041 146.102C238.876 145.397 238.85 145.881 238.85 144.553L238.85 136.867ZM192.532 160.311L192.138 160.93C191.217 163.01 190.737 164.139 191.39 165.835C192.047 167.556 193.596 169.304 195.253 168.824C196.987 168.322 197.108 166.042 199.418 165.562C201.244 165.182 202.935 167.102 203.48 168.504C205.041 168.681 206.062 168.703 207.221 167.85C207.892 167.353 208.783 166.077 208.952 164.974C209.211 163.287 208.701 162.396 208.208 161.159C207.619 159.684 206.015 155.977 205.266 154.718L203.623 151.751C203.402 151.305 201.001 146.919 200.543 146.655C200.227 146.474 199.989 146.478 199.695 146.703C199.436 147.339 199.193 147.373 198.73 148.295L195.002 155.168C194.829 155.497 194.82 155.648 194.617 156.016C194.396 156.414 194.349 156.431 194.141 156.924L193.903 157.621C193.782 157.928 193.609 158.239 193.475 158.564C193.211 159.208 192.965 159.865 192.532 160.311" fill="#231f20" fill-rule="evenodd" opacity="1" stroke="none"/>
<path d="M174.91 214.644C174.559 215.046 174.693 214.865 174.231 215.085C173.898 215.241 174.105 215.133 173.815 215.289L159.026 221.868C157.041 222.508 154.744 222.313 152.737 222.162C151.37 222.058 150.462 221.695 149.151 221.275L136.218 215.47C136.187 215.453 136.149 215.427 136.123 215.414L126.485 211.266C126.459 211.257 126.416 211.244 126.399 211.236L122.328 209.687C122.303 209.678 122.03 209.54 121.913 209.492L120.862 209.086C120.845 209.077 120.802 209.064 120.78 209.06L119.59 208.58C119.564 208.571 119.521 208.549 119.495 208.536L119.067 208.407C118.842 208.337 119.041 208.411 118.795 208.303L113.275 206.136C113.241 206.123 113.202 206.101 113.167 206.088L111.757 205.656C111.731 205.643 111.688 205.625 111.662 205.612L100.433 201.611C99.9871 201.499 99.7232 201.477 99.2604 201.399C97.8113 201.153 95.8562 201.443 94.4807 201.741C93.6977 201.91 93.183 202.169 92.3309 202.36L86.6687 204.159C86.6471 204.163 86.6082 204.181 86.5865 204.189L77.9138 208.229C76.0582 209.432 72.641 212.391 71.3044 214.069L70.4177 215.18C69.3969 216.271 68.1381 217.646 67.3898 218.918L65.984 221.046C65.1665 222.534 64.1976 223.892 63.5098 225.488L62.9561 226.933C62.8004 227.366 62.8912 227.102 62.7312 227.478C62.4025 228.252 62.4154 228.845 62.0391 229.55C63.0859 230.104 63.3195 229.883 63.2805 231.073L63.2719 238.928C62.3722 239.135 61.3081 239.728 60.5036 240.156C60.5036 240.796 60.4733 240.749 60.629 241.263C61.0572 242.678 61.2432 245.031 61.559 246.8C61.6671 247.388 61.732 247.272 61.732 247.994L65.0713 247.639C65.5774 247.67 65.6726 247.968 65.9191 248.418L66.8318 249.966C67.0005 250.282 67.1433 250.473 67.3552 250.823L68.774 253.25C69.0119 253.712 68.9946 253.738 69.2628 254.141L67.9002 255.854C67.8699 255.888 67.7834 255.979 67.7532 256.014L66.4987 257.523C66.7972 258.09 67.4547 258.505 67.3206 259.214C67.459 259.543 68.1468 260.473 68.3717 260.715C69.332 261.767 70.6772 263.164 71.8711 264.007C72.1046 264.172 71.8494 264.029 72.1868 264.219C73.3937 263.436 73.917 262.402 74.9508 261.632C75.4699 261.702 81.0542 264.011 81.3094 264.267C81.7463 265.391 81.2186 267.896 81.4565 269.315C83.3337 270.474 86.7077 271.218 89.1905 270.82C89.2727 270.487 89.4111 269.168 89.4544 268.739C89.5322 267.982 89.6231 267.537 89.7226 266.737L96.9289 265.668C97.3528 266.274 97.7248 267.182 98.1184 267.866C99.0138 269.41 98.9619 270.102 99.6929 270.089C100.294 270.08 99.5761 270.132 99.9308 270.067C99.9481 270.063 100.311 269.933 100.372 269.907L103.05 268.882C103.936 268.579 105.982 267.93 106.553 267.472C106.588 266.581 105.558 264.405 105.459 263.367C106.579 262.558 110.053 259.219 110.918 258.717C111.536 258.933 113.699 260.503 114.452 260.936C115.044 260.434 118.016 255.633 118.353 254.759C118.063 254.223 117.302 253.596 116.805 253.198C116.913 252.449 118.496 246.528 118.756 246.151L122.441 246.125C122.597 245.022 122.497 243.322 122.497 242.155C122.493 240.727 122.748 239.983 122.692 238.499L119.448 238.223C119.309 237.712 118.989 230.93 119.218 230.471C119.936 229.771 120.507 229.489 120.533 228.17C120.551 226.998 119.923 226.163 119.941 225.077C120.546 225.255 121.083 225.942 121.437 226.405C122.722 228.071 123.713 229.489 124.664 231.475C127.969 238.339 130.015 240.935 127.043 248.141C124.184 255.092 120.793 264.786 117.393 271.387L110.381 286.422C110.455 287.028 109.737 288.369 109.408 288.909C108.34 290.678 109.486 290.51 106.558 291.141C106.056 291.254 105.476 291.375 105.035 291.448L99.5502 292.573C98.5467 292.781 97.409 292.897 96.4704 293.187C95.5361 293.477 94.3293 293.473 93.3776 293.767C93.356 293.771 93.3128 293.793 93.2868 293.797L93.1224 293.853C93.0835 293.866 92.8932 293.905 92.8543 293.914C91.9848 294.096 91.1889 294.334 90.4752 294.165C88.347 294.498 86.2838 294.935 84.2637 295.385C83.4505 295.562 81.8025 295.839 80.9417 295.826C78.8655 295.791 78.3291 294.658 77.5678 293.797L65.067 279.099C57.4973 269.864 53.5438 261.784 50.5635 250.127C49.2398 244.953 48.989 243.141 48.1066 237.937C47.7432 235.77 47.5832 232.716 47.3669 231.453C47.2501 230.77 47.0165 228.988 47.0208 228.174C47.0252 226.825 46.8089 226.072 46.8262 224.787C46.9127 217.192 47.1506 211.772 48.4959 204.587C49.547 198.999 51.2166 192.926 54.915 189.227C57.3329 186.809 60.3089 185.39 64.7426 184.59C66.8015 184.214 69.12 184.136 71.3736 183.838L88.3254 182.7L95.3544 182.921C96.3363 183.068 97.5604 183.176 98.4861 183.262C103.473 183.738 105.987 184.218 110.723 185.494C111.662 185.745 112.674 186.039 113.582 186.338C114.62 186.68 115.416 187.052 116.385 187.207C116.77 186.316 117.588 185.356 118.012 184.313L125.131 185.551C126.256 186.545 124.898 187.731 126.356 188.457L130.534 190.278C131.931 190.914 133.173 188.539 134.124 188.384C134.626 188.453 139.873 191.312 140.539 191.775C140.591 192.376 140.703 192.757 140.742 193.276C140.781 193.765 140.695 194.491 140.781 194.933C140.924 195.69 141.893 196.083 142.498 196.434C143.623 197.087 145.392 198.432 146.573 198.895C147.525 198.216 149.683 196.261 150.419 195.876C151.889 196.524 154.714 198.756 156.418 199.531C156.539 200.945 156.418 202.109 156.63 203.419C157.24 207.113 162.469 203.155 163.854 202.264L177.968 193.008C179.123 192.268 179.015 191.97 180.481 192.709L196.806 198.648L196.784 205.266C196.079 205.863 179.352 212.455 177.194 213.424C176.748 213.623 176.376 213.775 176.017 213.939L174.91 214.644" fill="#231f20" fill-rule="evenodd" opacity="1" stroke="none"/>
<path d="M349.376 249.841C349.571 250.758 348.295 254.296 347.914 255.828L345.89 261.33C345.751 261.728 345.725 261.689 345.544 262.061C345.172 262.813 345.388 262.813 344.735 264.02L343.883 265.932C343.575 266.633 343.493 266.767 343.152 267.355L325.33 290.722C325.17 290.934 323.6 292.82 323.176 292.936C322.16 293.672 322 294.372 321.087 295.095C320.148 295.834 318.989 295.934 317.726 295.709C309.46 294.26 301.393 292.422 293.23 290.864C291.371 290.51 291.656 290.817 290.817 289.121L285.406 277.788C284.519 275.846 283.623 273.965 282.732 271.979C279.462 264.678 277.083 259.132 274.042 251.506C273.644 250.52 273.247 249.248 272.87 248.344C269.773 240.853 271.689 239.057 274.683 232.535C275.444 230.878 278.325 225.536 279.834 225.099C280.081 225.622 279.341 227.128 279.311 228.019C279.263 229.485 279.843 229.719 280.613 230.471C280.76 231.592 280.678 233.292 280.682 234.472C280.682 234.728 280.427 238.071 280.379 238.223L277.2 238.486C277.079 239.737 277.243 240.065 277.261 240.117L277.373 240.364C277.581 240.619 277.529 242.012 277.529 242.306C277.52 246.722 276.651 245.844 281.526 245.844C281.526 246.688 281.988 248.037 282.001 248.089L282.036 248.275C282.118 248.703 281.98 248.189 282.11 248.656L283.104 252.263C283.191 252.575 283.195 252.393 283.204 252.787C283.226 253.76 283.208 253.141 283.061 253.293C282.533 253.492 281.755 254.253 281.469 254.759C281.802 255.533 284.9 260.525 285.367 260.94C286.409 260.378 287.776 259.176 288.901 258.717C289.679 259.137 293.386 262.653 294.381 263.367L293.213 267.442C293.698 267.818 299.71 270.05 300.497 270.18L302.889 265.672L307.077 266.265C307.816 266.412 308.461 266.49 309.2 266.572C310.918 266.758 309.655 267.26 310.42 267.844L310.355 267.978C310.364 268.51 310.541 270.435 310.727 270.746C311.445 271.118 314.222 270.803 315.049 270.612C316.376 270.301 317.393 269.903 318.418 269.319L318.513 264.262C318.76 264.016 324.387 261.706 324.867 261.632C326.005 262.389 326.49 263.583 327.636 264.219C329.941 262.844 332.134 259.889 333.657 257.679C333.272 256.667 331.663 255.304 331.005 254.296C331.049 253.6 332.29 251.749 332.692 251.048C333.147 250.248 333.96 248.712 334.552 247.994C335.288 247.912 337.135 248.271 337.931 248.297C338.506 248.068 338.034 248.435 338.298 247.869L339.622 240L336.706 238.465L336.702 230.411L338.03 229.857C337.857 229.364 337.688 228.529 337.515 227.993C337.009 226.414 336.174 224.593 335.435 223.139C333.579 219.497 328.311 212.923 325.092 210.271C319.807 205.919 315.658 204.76 309.477 202.693C305.195 201.261 302.171 200.443 297.738 201.806C297.11 201.996 294.788 202.727 294.364 203.026C292.858 203.424 287.59 205.5 285.652 206.179C278.982 208.506 267.433 213.333 260.884 216.296C259.132 217.088 257.19 217.962 255.551 218.784C248.656 222.248 244.382 223.377 237.63 220.276C235.03 219.082 205.638 206.426 204.384 205.266L204.414 198.657C205.387 198.281 206.235 197.809 207.157 197.424L219.545 192.627C220.864 191.952 220.938 192.381 222.036 193.129L236.06 202.321C244.27 207.974 243.167 203.493 243.396 199.522C244.672 199.051 247.864 196.615 249.4 195.876C250.144 196.235 251.502 197.528 252.242 198.116L253.245 198.895C254.218 198.562 256.572 196.905 257.424 196.386C259.79 194.95 258.86 195.365 259.106 193.133C259.167 192.627 259.258 192.415 259.301 191.784C259.721 191.481 265.132 188.488 265.694 188.384C266.001 188.423 267.857 190.192 268.77 190.525C270.578 189.56 273.917 188.635 274.164 187.722C274.401 186.84 273.952 186.424 274.609 185.615C275.275 185.365 281.097 184.374 281.828 184.361C282.101 185.179 283.078 186.485 283.554 187.225C284.45 187.052 286.003 186.42 286.954 186.104C294.589 183.582 304.845 182.601 313.041 182.7C313.894 182.709 314.088 182.899 314.867 182.912L321.632 183.115C322.402 183.202 322.739 183.245 323.643 183.284L335.885 184.733C339.302 185.373 342.563 186.857 344.834 189.145C349.562 193.899 351.223 202.498 352.053 209.09C352.594 213.381 352.534 213.273 352.823 217.408C352.996 219.792 353.312 223.823 352.923 226.267C352.789 227.11 352.836 227.638 352.81 228.486L352.175 234.593C351.82 237.249 351.435 239.845 350.981 242.431C350.544 244.923 349.86 247.38 349.376 249.841" fill="#231f20" fill-rule="evenodd" opacity="1" stroke="none"/>
<path d="M195.824 236.622C195.841 237.327 195.863 236.579 194.699 238.326C194.539 238.569 194.401 238.677 194.184 238.889L186.757 247.445C186.381 247.946 186.342 248.167 185.659 248.344L169.892 251.459C169.524 251.537 168.927 251.649 168.313 251.749L166.008 252.233C163.209 252.657 160.09 253.453 157.422 253.924C155.315 254.292 151.02 256.407 149.307 257.796C148.848 258.168 148.597 258.263 148.143 258.635C145.457 260.832 145.258 261.399 143.078 263.553C142.65 263.981 142.529 264.197 142.148 264.626C141.936 264.872 141.932 264.825 141.737 265.136L138.735 269.206C138.445 269.609 138.203 269.924 137.892 270.361C137.797 270.491 137.792 270.508 137.701 270.63C137.541 270.85 137.667 270.66 137.507 270.893L136.348 272.81C136.187 273.099 136.14 273.104 135.98 273.363C135.197 274.626 134.6 275.972 134.003 277.313L133.164 279.311C132.939 279.826 132.917 280.353 132.714 280.855C132.316 281.82 131.689 284.848 131.667 285.804C131.611 288.2 131.321 288.425 131.646 291.513C131.676 291.842 131.65 292.106 131.667 292.417C131.702 293.057 132.126 294.887 132.126 296.41C132.757 296.557 132.848 296.565 133.666 296.565C133.843 296.829 134.029 297.072 134.202 297.409L136.828 302.011C137.083 302.427 137.009 302.539 137.269 302.954C138.143 304.356 137.952 303.564 137.126 305.1C136.797 305.705 136.819 305.731 136.278 306.09L139.267 310.022C139.471 310.295 139.522 310.351 139.734 310.632C140.145 311.164 140.128 310.866 140.033 311.471C140.206 311.921 140.085 311.744 140.427 312.09C141.404 311.973 142.2 310.719 143.195 310.533L147.663 313.47C148.174 313.798 148.714 314.114 149.19 314.525L148.247 318.081C148.796 318.401 155.146 320.953 155.613 320.957C156.215 319.98 156.513 318.236 157.08 317.371C157.988 317.112 159.71 317.242 160.722 317.255C161.963 317.268 162.872 317.034 164.243 317.051C164.952 318.115 165.536 320.066 166.25 321.295C166.76 321.325 172.617 319.759 173.175 319.465L172.427 315.338L177.778 311.571C178.535 312.086 180.766 313.971 181.467 314.244L186.23 308.244L183.435 305.342C183.513 304.425 185.373 300.567 185.836 299.399C187.441 299.204 188.92 299.299 190.482 299.126L190.503 292.296C189.694 292.465 189.604 292.499 188.639 292.448L186.684 285.652C187.302 284.761 188.764 284.021 189.573 283.04C189.543 282.957 186.701 277.334 186.515 277.702L184.041 278.13L181.242 274.51C180.987 274.189 180.412 273.471 180.291 273.298C179.534 272.148 180.879 270.742 179.966 269.635C179.482 269.042 178.344 267.814 178.067 267.186C179.131 267.117 180.84 267.45 181.926 267.641C182.631 267.416 183.128 267.714 183.79 267.943L184.586 268.225C188.384 269.959 190.862 272.291 193.635 275.176L196.646 278.935C197.178 279.821 196.992 281.106 196.992 282.118L196.927 314.201C196.87 314.491 196.654 315.105 196.555 315.498C196.421 316.043 196.36 316.528 196.239 317.025L192.653 326.879C192.644 326.896 192.631 326.939 192.623 326.957L191.187 330.417C191.009 330.837 191.009 330.677 190.802 331.105C190.352 332.035 190.019 332.783 189.521 333.67L188.328 336.166C187.956 336.832 187.869 336.624 187.16 336.841L169.706 342.027C169.092 342.178 168.828 342.442 168.093 342.278C166.7 342.542 164.961 343.117 163.508 343.593C162.435 343.943 159.939 344.977 158.918 344.471C153.619 341.841 152.395 341.266 147.698 338.169C146.569 337.425 145.275 336.564 144.272 335.751L139.449 331.823C138.848 331.377 138.545 330.936 138.009 330.491L134.955 327.701C133.653 326.65 127.831 320.291 126.416 318.872C125.893 318.349 125.482 317.934 124.963 317.41C124.431 316.883 124.093 316.415 123.6 315.853C121.662 313.656 120.157 312.475 118.12 309.655C116.372 307.232 114.763 305.965 113.708 302.522C113.089 300.493 113.478 299.286 113.972 297.599C116.831 287.776 119.487 281.21 123.081 271.983C124.794 267.589 130.136 256.667 132.688 252.544C135.331 248.271 135.054 249.071 136.317 244.495C136.663 243.232 136.776 243.651 137.624 242.89C137.961 242.591 138.787 241.873 139.198 241.635C139.644 241.912 140.241 242.483 140.764 242.842L147.049 239.715C147.066 238.984 146.781 237.755 146.889 235.701C147.555 235.273 150.514 234.407 151.556 234.066C153.299 233.499 154.234 232.82 155.012 233.404C155.54 233.793 157.262 235.329 157.781 235.32L164.559 232.803L164.567 228.296C164.978 227.971 171.146 225.164 171.977 224.896L175.009 227.854C177.401 227.582 182.099 223.265 183.639 221.427C185.183 219.588 186.463 217.711 187.808 215.6C188.751 214.121 188.561 213.896 189.469 213.571C190.828 213.083 197.026 210.617 197.502 210.604C197.692 211.504 197.558 222.56 197.558 224.48C197.558 225.722 197.818 233.914 197.325 234.663C196.81 235.45 196.135 235.822 195.824 236.622" fill="#231f20" fill-rule="evenodd" opacity="1" stroke="none"/>
<path d="M264.345 246.458C264.781 246.9 264.621 246.753 264.812 247.345C265.166 248.431 266.512 250.529 267.169 251.593L269.531 255.685C269.743 256.13 269.73 256.191 269.994 256.602C270.232 256.965 270.249 256.982 270.439 257.389C270.63 257.791 270.729 257.925 270.919 258.293L279.765 278.186C279.951 278.606 279.977 278.541 280.146 279.038L281.184 281.828C281.193 281.854 281.21 281.898 281.218 281.919L281.5 282.836C281.504 282.858 281.517 282.901 281.526 282.923L283.52 288.619C283.732 289.216 283.918 289.939 284.138 290.527L284.398 291.219C284.54 291.639 284.614 291.963 284.722 292.296L286.227 297.063C286.625 298.092 286.989 299.373 286.915 300.554C286.885 301.103 286.842 301.419 286.777 301.817C286.686 302.34 286.673 302.466 286.526 302.954C285.7 305.671 284.701 306.185 283.809 307.764C283.766 307.842 283.641 308.084 283.589 308.158C283.273 308.582 283.502 308.223 283.213 308.552C282.983 308.811 282.949 308.958 282.706 309.274L279.7 312.873C279.635 312.938 279.441 313.128 279.389 313.18L278.493 314.283C275.422 317.328 272.572 320.52 269.496 323.578L268.748 324.366C268.726 324.387 268.696 324.422 268.674 324.444L267.654 325.577C267.035 326.416 265.954 327.588 265.093 328.241L263.83 329.284C262.359 330.759 260.733 332.022 259.18 333.393C259.02 333.536 259.007 333.605 258.795 333.778L257.307 334.903C256.771 335.322 256.377 335.694 255.879 336.088C255.408 336.469 254.854 336.789 254.344 337.165L245.896 342.399C245.066 342.827 243.5 343.991 242.639 343.818C240.165 344.57 241.83 345.288 236.155 343.463C233.992 342.771 231.942 342.213 229.61 341.538C224.286 339.99 218.308 338.03 213.256 336.702C211.88 336.339 212.23 336.508 211.21 334.457C210.717 333.467 210.271 332.571 209.83 331.693C207.918 327.908 205.085 320.304 203.93 316.199C203.125 313.327 203.463 303.417 203.463 299.792C203.463 294.104 203.463 288.416 203.463 282.732C203.463 278.796 203.099 279.964 204.773 277.754L206.724 275.405C208.692 272.961 212.166 270.314 215.046 268.83C216.707 267.978 220.241 267 222.032 267.208C221.816 267.632 221.029 268.532 220.696 268.934C220.384 269.315 219.208 270.314 220.042 270.989C220.687 272.965 220.112 273.458 218.948 274.873L216.4 278.178C216.206 278.342 216.175 278.498 215.596 278.355C214.93 278.195 214.709 277.966 213.433 277.966C213.364 278.839 213.143 278.653 212.827 279.203L210.825 283.04C211.058 283.195 211.309 283.342 211.547 283.546C212.092 284.008 213.109 285.042 213.74 285.189L212.719 288.927C212.425 289.904 211.759 292.084 211.746 292.72C211.387 292.72 211.015 292.733 210.66 292.711L209.735 292.72L209.748 299.144C211.504 299.265 212.559 299.118 214.259 299.42C214.553 299.987 216.565 304.676 216.634 305.169C216.318 305.883 214.532 307.293 213.878 308.244C214.095 308.854 215.725 310.68 216.21 311.307C216.751 312.012 217.983 313.703 218.663 314.222C219.571 313.824 220.899 312.553 221.872 311.904C222.59 311.424 222.806 311.826 224.212 312.842L227.595 315.286L227.032 318.851L227.115 318.907C226.73 319.223 226.881 318.76 226.846 319.465C227.171 319.655 233.447 321.303 233.906 321.342L235.753 317.064L242.937 317.328C243.513 318.12 243.859 320.205 244.482 320.97C244.945 320.918 251.407 318.353 251.813 318.081C251.597 316.965 251.156 315.615 250.888 314.547C251.537 313.889 255.793 311.277 256.931 310.463C257.874 310.866 258.773 311.874 259.548 312.111C259.95 311.783 263.774 306.644 263.986 306.09C263.631 305.429 263.034 304.767 262.597 304.096C262.766 303.331 265.236 299.092 265.928 297.872C266.91 296.15 266.473 297.184 268 296.721C268.536 295.251 268.718 289.796 268.718 287.958C268.705 279.185 263.717 271.374 258.397 264.825C256.178 262.091 254.305 259.993 251.182 257.735C249.162 256.277 247.423 255.27 244.988 254.383C242.427 253.449 239.927 253.077 237.167 252.54C232.119 251.554 226.042 250.481 221.202 249.413C219.956 249.14 218.606 248.863 217.287 248.643C213.874 248.076 214.441 248.565 211.456 244.893L208.126 241.004C207.658 240.433 207.481 240.186 207.001 239.676L202.628 234.516C202.286 233.837 202.463 212.291 202.502 210.617C203.108 210.66 208.774 212.875 209.752 213.269C211.634 214.021 211.3 214.026 212.282 215.635C213.005 216.816 213.424 217.421 214.315 218.676C216.413 221.639 216.655 221.639 218.974 224.009C219.952 225.012 223.451 227.668 225.116 227.85L228.045 224.978C228.633 225.043 234.728 227.781 235.472 228.235L235.506 232.876C236.934 233.378 238.391 233.945 239.974 234.511C242.89 235.554 241.912 235.783 244.036 234.178C245.814 232.833 245.533 232.989 248.453 234.023C250.049 234.589 251.571 235.173 253.172 235.623C253.167 239.226 252.782 239.538 253.79 240.074C254.102 240.243 254.357 240.351 254.616 240.481L259.236 242.782C260.875 242.051 260.201 240.537 263.155 243.469C264.107 244.408 263.882 245.628 264.345 246.458" fill="#231f20" fill-rule="evenodd" opacity="1" stroke="none"/>
<path d="M128.748 125.867C128.233 126.217 127.597 127.273 127.376 127.645C127.541 128.229 128.44 129.729 128.786 130.517C129.31 131.715 129.448 132.606 129.82 133.77C132.701 133.852 132.057 133.64 133.359 133.579C133.51 133.571 133.817 133.588 133.968 133.609L134.453 133.692L136.283 141.339C135.288 141.754 134.193 143.069 133.151 143.705C133.281 144.272 133.67 145.094 133.869 145.583C134.63 147.503 135.08 149.259 135.27 151.409C135.928 151.82 136.663 151.872 137.658 151.863C138.727 151.85 139.224 152.054 140.314 152.049C140.768 153.568 141.309 155.471 141.867 157.097C142.031 157.573 142.152 157.975 142.278 158.408C142.498 159.173 142.568 159.104 142.17 159.649C141.893 160.03 141.599 160.246 141.344 160.54C139.073 163.157 138.913 163.14 140.15 165.887C141.049 167.894 142.537 170.48 143.792 172.232C145.816 175.048 148.022 174.166 151.344 174.469C152.499 174.572 153.26 174.646 154.567 174.642L163.944 175.07C164.481 175.758 165.294 177.527 165.783 178.517C166.838 180.654 170.999 188.055 171.207 189.184C166.6 190.797 167.154 190.33 162.803 191.048C162.002 191.178 161.09 191.113 160.25 191.109C158.421 191.105 155.341 191.818 153.152 190.854C150.899 189.863 148.463 188.6 146.244 187.454C143.922 186.251 141.59 185.265 139.319 184.093C133.069 180.875 128.259 179.391 124.232 173.361C123.527 172.301 122.969 171.445 122.354 170.165C121.325 168.01 120.3 165.199 119.625 162.621C118.89 159.809 118.306 157.257 117.661 154.273C117.047 151.418 116.606 148.524 115.901 145.725C114.599 140.582 112.514 135.21 109.94 131.083C108.798 129.254 106.657 127.156 104.983 125.741C101.224 122.571 96.1287 119.958 90.9034 119.244C89.6014 119.063 82.3778 118.293 81.517 118.959L80.228 119.076L80.1545 121.161L74.6178 123.916L72.9525 122.298C72.4766 122.45 68.4279 125.594 67.8916 126.1C68.0646 126.589 68.3328 126.84 68.588 127.242C69.851 129.184 68.9859 128.03 68.0819 130.413C68.229 131.118 67.9132 131.096 67.3941 132.078C67.2125 132.42 66.7237 133.311 66.3733 133.51C66.2608 133.575 66.382 133.744 65.6855 133.501C64.7253 133.164 63.5098 133.086 62.9605 132.718C62.9475 133.441 62.8999 133.121 62.662 133.8L62.0737 135.755C62.0607 135.79 62.0218 135.889 62.0045 135.928L61.1178 138.558C61.9786 138.558 61.9656 138.649 62.6058 138.913L63.8861 139.172L63.8861 145.474L61.732 146.551C61.4638 146.677 61.2346 146.729 60.9664 146.859C60.9664 147.719 61.2519 148.468 61.3989 149.233C61.546 149.973 61.8704 151.193 61.8877 151.932C62.9821 151.932 63.1335 151.738 63.9553 151.565C65.3741 151.262 65.24 150.86 66.6026 152.901L68.4712 155.644C68.5101 155.843 68.4971 156.029 68.4971 156.232C68.2333 156.418 68.2549 156.392 68.0343 156.479C67.5715 156.807 66.5853 158.564 66.4814 159L70.8027 163.287C71.1876 163.002 72.6107 161.362 72.9525 160.886C73.6964 160.904 77.0877 162.409 77.8403 162.729L77.8836 166.574L83.576 166.544L83.576 165.298C84.4627 165.022 85.4403 164.805 86.4308 164.489C87.3003 164.213 88.5287 163.676 89.3981 164.027C89.7053 164.061 89.6966 164.044 90.047 164.65C90.3238 165.125 90.3541 165.169 90.7823 165.458L90.6699 165.917C90.8472 166.254 90.6353 166.06 90.9424 166.246L95.9643 163.815L95.575 161.137L99.2907 158.741C100.19 158.23 99.9568 158.698 100.926 158.737C101.592 158.192 101.691 157.794 102.236 157.236C102.6 156.859 103.119 156.12 103.569 155.873C103.646 157.08 103.608 158.403 103.608 159.623C103.612 160.882 103.595 160.614 102.288 161.898C101.661 162.517 100.978 163.032 100.329 163.629L90.3671 170.878C89.9994 171.155 90.207 170.922 89.9432 171.298C89.861 171.518 90.021 171.337 89.7269 171.627L88.4509 172.5C87.5641 173.002 86.8115 173.694 85.8685 174.071C84.3113 174.685 80.5308 175.792 78.8179 176.086C77.2737 176.354 75.5391 176.752 73.9863 176.943C73.0173 177.06 72.4161 177.085 71.4991 177.228C70.4912 177.384 70.0803 177.246 69.2022 177.38L65.5169 177.047C65.2573 176.895 65.2833 176.904 65.0367 176.761C64.9935 176.735 64.8767 176.67 64.8377 176.649L64.6517 176.523C64.6258 176.506 64.5912 176.476 64.5652 176.458L54.703 170.865C54.4694 170.775 54.4954 170.783 54.2229 170.671L53.3145 170.307C53.2799 170.294 53.1891 170.26 53.1588 170.247L52.9944 170.199C52.9771 170.191 52.9295 170.182 52.9079 170.178L52.5619 170.095C52.1812 169.974 52.0341 169.888 51.5756 169.775C50.8619 169.602 50.464 169.451 49.9579 168.958L49.6508 168.694C49.1966 168.309 49.149 167.963 49.0063 167.427C48.7424 166.44 48.6646 166.034 48.6689 164.996C48.6775 162.911 48.4483 154.48 48.7554 153.247C48.9241 152.586 48.777 152.253 48.9025 151.552C49.5599 147.897 53.3491 139.375 54.9928 135.353C55.2523 134.712 55.6114 134.107 55.8709 133.467C56.1607 132.753 56.4202 132.277 56.7663 131.589C57.4194 130.274 58.0207 129.072 58.6609 127.8C59.8807 125.352 61.1481 122.96 62.5495 120.624C63.605 118.872 64.5263 117.129 65.6899 115.464C66.0619 114.932 65.8802 115.131 66.4814 114.871L67.0048 114.629C67.2644 114.495 67.2644 114.504 67.5239 114.369L68.4496 113.989C68.4712 113.985 68.5144 113.967 68.5361 113.959L69.2368 113.638C69.4877 113.517 69.3579 113.578 69.6391 113.422L79.0428 109.296C79.3456 109.131 79.1942 109.205 79.4321 109.092C79.4451 109.088 79.4883 109.066 79.5056 109.062L79.6743 108.989C79.7003 108.98 79.7435 108.958 79.7695 108.95C80.0334 108.846 80.1199 108.828 80.3275 108.742L80.8466 108.491C80.8768 108.474 80.9158 108.448 80.946 108.431L84.2378 106.964C84.6747 106.726 84.8347 106.752 85.2543 106.592L85.8599 106.281C87.6939 105.251 94.4807 106.026 97.076 105.814C97.8546 105.749 98.7629 105.71 99.7059 105.641C100.796 105.558 100.467 105.831 100.467 107.514C100.995 107.514 101.951 107.44 102.418 107.557L104.066 108.063C104.819 108.227 106.718 109.395 107.072 109.356C107.379 109.322 107.855 108.898 108.123 108.712C108.413 108.508 108.513 108.249 108.898 108.089C109.434 107.86 109.828 108.076 110.26 108.318L110.753 108.599C111.605 109.032 112.613 109.386 113.422 109.927C114.166 110.425 115.646 111.294 116.45 111.506C116.45 112.743 116.143 113.5 116.143 114.737C116.446 114.897 116.662 115.049 116.926 115.183C117.337 115.399 117.315 115.325 117.726 115.611C118.271 115.983 118.561 116.338 119.028 116.766L120.494 118.375C120.512 118.401 120.538 118.44 120.559 118.466C120.577 118.492 120.607 118.526 120.624 118.552C120.642 118.578 120.672 118.613 120.689 118.639C120.711 118.665 120.741 118.699 120.758 118.73L120.992 119.11C121.26 119.638 121.065 119.089 121.217 119.655C121.818 119.513 122.532 119.365 123.103 119.236C123.362 119.179 123.375 119.171 123.583 119.102C124.111 118.916 123.579 119.041 124.028 118.933C124.405 118.846 124.82 118.885 125.209 118.885C125.274 119.66 125.754 119.945 126.126 120.542L127.913 123.41C128.164 123.739 129.353 125.201 129.111 125.616C128.812 126.126 129.037 125.78 128.748 125.867" fill="#231f20" fill-rule="evenodd" opacity="1" stroke="none"/>
<path d="M334.397 115.728C335.781 117.177 341.132 127.433 342.338 129.851C343.588 132.351 344.752 134.747 345.859 137.394C347.806 142.044 348.827 144.726 350.444 149.411C351.024 151.093 350.838 163.936 350.847 165.303C350.864 168.607 349.804 169.17 347.447 169.888L345.401 170.619C343.744 171.19 341.391 172.66 339.838 173.361C339.042 173.72 338.904 174.287 337.931 174.3C336.205 174.914 334.358 177.021 332.554 177.15C328.618 177.44 321.887 176.091 318.133 175.139C312.916 173.82 311.843 172.561 307.254 169.529C306.112 168.772 299.991 164.351 299.074 163.43C298.637 162.989 298.503 162.824 297.932 162.422C297.249 161.942 296.098 160.96 296.029 160.09C295.947 159.07 295.995 156.924 296.081 155.882C296.812 156.258 298.335 158.65 298.737 158.75C299.714 158.607 299.377 158.196 300.186 158.624L304.049 161.172C304.014 161.799 303.711 163.019 303.698 163.611C304.079 163.957 308.123 166.055 308.729 166.176C309.417 165.58 309.867 164.533 310.572 163.78L316.074 165.29L316.074 166.561L321.762 166.57L321.775 162.699C322.804 162.353 325.81 160.912 326.727 160.843L328.864 163.244C329.357 162.963 332.982 159.269 333.16 158.849C332.861 158.33 332.666 157.98 332.303 157.409C331.122 155.54 331.005 156.154 332.818 153.732C333.354 153.018 333.791 152.261 334.397 151.673L337.779 152.408C338.039 151.811 338.233 150.336 338.393 149.631C338.562 148.892 338.908 147.503 338.826 146.725C337.983 146.201 336.776 145.639 335.928 145.206L335.919 139.635C336.685 139.12 337.857 139.038 338.731 138.783C338.649 138.134 337.001 133.026 336.737 132.571L333.298 133.385C332.839 132.541 332.299 131.602 331.832 130.832C331.499 130.287 330.508 128.765 330.408 128.259C330.75 127.394 331.468 127.022 331.676 126.109C331.377 125.733 330.525 124.993 329.941 124.781L329.656 125.058C329.375 124.651 329.375 124.686 329.02 124.418C328.709 124.175 328.579 124.033 328.272 123.782L327.03 122.869C326.87 122.692 326.952 122.904 326.866 122.575C325.815 123.276 325.482 124.742 324.063 123.842L320.538 121.987C320.33 121.887 320.226 121.853 320.001 121.753C318.422 121.052 319.127 121.234 319.201 120.109C319.27 118.985 318.903 119.037 315.953 119.037C313.95 119.041 312.228 119.115 310.42 119.192C309.585 119.227 308.941 119.521 308.115 119.655L304.909 120.438C304.559 120.555 304.222 120.607 303.841 120.758L298.958 122.947C298.663 123.137 298.387 123.414 298.088 123.596L296.587 124.573C296.332 124.764 296.059 124.954 295.796 125.166L293.473 127.147C291.258 129.366 289.787 131.17 288.36 134.02L285.375 141.166C285.198 141.573 285.172 141.724 285.021 142.213L282.079 154.9C282.071 154.926 282.066 154.973 282.062 154.999C282.058 155.021 282.049 155.064 282.045 155.09L280.691 161.111C280.617 161.379 280.695 161.163 280.591 161.466L280.159 163.17C280.051 163.694 279.999 163.823 279.839 164.23L279.371 165.225C279.082 165.467 277.555 169.637 277.135 170.472C276.802 171.138 276.599 171.389 276.261 172.029C274.267 175.835 269.782 179.612 265.936 181.376C259.379 184.391 252.614 187.977 245.983 191.079C245.161 191.459 242.345 191.403 241.263 191.286C239.974 191.148 237.721 191.208 236.674 190.97C236.181 190.862 235.017 190.771 234.481 190.711C233.733 190.629 233.019 190.503 232.323 190.352C230.787 190.019 229.844 189.591 228.456 189.158C228.59 188.397 232.059 181.766 232.898 180.295C233.49 179.257 235.42 175.204 235.722 175.057C237.838 174.892 240.039 174.858 242.185 174.836L248.474 174.451C254.413 174.27 254.941 174.581 258.457 168.049C258.851 167.323 259.223 166.492 259.543 165.77C261.113 162.201 259.781 162.867 257.437 159.558C257.134 159.13 257.143 159.152 257.333 158.52C257.61 157.586 259.206 151.738 259.461 152.157C259.487 152.196 259.556 152.123 259.591 152.118C259.625 152.11 259.682 152.092 259.725 152.084L260.512 151.963C261.602 151.751 263.908 151.928 264.284 151.457L265.132 147.373C265.435 146.422 266.369 144.371 266.373 143.558C265.443 142.987 264.102 141.69 263.35 141.352L265.205 133.592C266.879 133.549 268.069 133.826 269.829 133.765C271.322 126.974 273.259 129.107 271.408 126.394C271.192 126.079 270.997 125.858 270.777 125.495L274.76 119.21C276.162 119.279 277.3 119.867 278.511 120.014C278.986 118.366 281.98 115.671 283.649 115.049C283.654 111.108 282.417 112.371 285.687 110.593C291.245 107.574 289.878 108.093 292.439 109.802C293.477 109.421 294.286 108.803 295.497 108.418C297.162 107.89 297.457 107.929 299.342 107.816C299.364 107.492 299.291 106.216 299.55 105.995C299.697 105.913 309.049 106.082 310.264 106.082C312.791 106.082 312.899 106.233 314.806 107.133L334.397 115.728" fill="#231f20" fill-rule="evenodd" opacity="1" stroke="none"/>
<path d="M200.002 11.7504C303.966 11.7504 388.25 96.0335 388.25 200.002C388.25 303.966 303.966 388.25 200.002 388.25C96.0378 388.25 11.7547 303.966 11.7547 200.002C11.7547 96.0335 96.0378 11.7504 200.002 11.7504ZM200.002 5.77251C307.271 5.77251 394.227 92.7288 394.227 200.002C394.227 307.271 307.271 394.227 200.002 394.227C92.7331 394.227 5.77251 307.271 5.77251 200.002C5.77251 92.7288 92.7331 5.77251 200.002 5.77251" fill="#231f20" fill-rule="evenodd" opacity="1" stroke="none"/>
</g>
</g>
</svg>
